<?xml version="1.0" standalone="no"?>
<!DOCTYPE svg PUBLIC "-//W3C//DTD SVG 1.1//EN" "http://www.w3.org/Graphics/SVG/1.1/DTD/svg11.dtd" >
<svg>
<metadata>
Created by FontForge 20090622 at Thu Sep 24 11:35:57 2015
 By deploy user
Copyright (c) 2008 by ParaType, Inc., Revision_2_LHS. 2014. All rights reserved.
</metadata>
<defs>
<font id="HeliDisCyr-Bold" horiz-adv-x="420" >
  <font-face 
    font-family="HeliDisCyr"
    font-weight="700"
    font-stretch="normal"
    units-per-em="1000"
    panose-1="2 0 5 6 6 0 0 2 0 4"
    ascent="800"
    descent="-200"
    x-height="564"
    cap-height="712"
    bbox="-42 -202 975 898"
    underline-thickness="68"
    underline-position="4"
    unicode-range="U+0020-U+F6D4"
  />
<missing-glyph horiz-adv-x="500" 
d="M58 8h384v496h-384v-496zM50 0v512h400v-512h-400z" />
    <glyph glyph-name=".notdef" horiz-adv-x="500" 
d="M58 8h384v496h-384v-496zM50 0v512h400v-512h-400z" />
    <glyph glyph-name=".null" horiz-adv-x="0" 
 />
    <glyph glyph-name="nonmarkingreturn" horiz-adv-x="333" 
 />
    <glyph glyph-name="space" unicode=" " horiz-adv-x="225" 
 />
    <glyph glyph-name="exclam" unicode="!" horiz-adv-x="235" 
d="M130 200h-24q-65 273 -65 407q0 15 2.5 31t9.5 37t24 34.5t41 13.5t41 -13.5t24 -34.5t10 -37t3 -31q0 -106 -66 -407zM116 154q33 0 56.5 -23.5t23.5 -58.5t-23.5 -58.5t-56.5 -23.5t-56.5 23.5t-23.5 58.5t23.5 58.5t56.5 23.5z" />
    <glyph glyph-name="quotedbl" unicode="&#x22;" horiz-adv-x="405" 
d="M54 598v114h117v-113l-20 -138h-77zM234 598v114h117v-113l-20 -138h-77z" />
    <glyph glyph-name="numbersign" unicode="#" horiz-adv-x="460" 
d="M153 712h83l-22 -200h74l23 200h82l-22 -200h63l-3 -97h-71l-14 -118h62l-1 -97h-71l-23 -200h-82l22 200h-75l-22 -200h-82l22 200h-71l4 97h78l13 118h-67l3 97h75zM278 415h-75l-14 -118h76z" />
    <glyph glyph-name="dollar" unicode="$" horiz-adv-x="440" 
d="M198 768h46v-42q19 -2 34 -5t44 -15.5t48 -31t34.5 -54t15.5 -81.5v-22h-134v7q0 67 -42 77v-158q96 -82 136 -137.5t40 -131.5q0 -81 -45 -128.5t-131 -59.5v-66h-46v66q-37 3 -66 13.5t-47.5 23.5t-31.5 32.5t-19 35t-9.5 38.5t-4 34.5t-0.5 30.5v23h133v-20
q0 -45 14 -64.5t31 -19.5v187q-52 42 -76 63t-52 53.5t-38 64.5t-10 72q0 15 2 31t12.5 42t27.5 46t52 36t82 18v42zM198 476v126q-23 -2 -34 -17t-11 -29q0 -24 16 -48t29 -32zM244 261v-149q17 0 31 17.5t14 44.5q0 24 -16 50.5t-29 36.5z" />
    <glyph glyph-name="percent" unicode="%" horiz-adv-x="621" 
d="M407 726h71l-263 -740h-73zM474 401q126 0 126 -127v-147q0 -127 -126 -127q-125 0 -125 127v147q0 127 125 127zM474 329q-23 0 -23 -34v-189q0 -34 23 -34q24 0 24 34v189q0 34 -24 34zM147 712q125 0 125 -127v-147q0 -127 -125 -127q-126 0 -126 127v147
q0 127 126 127zM147 640q-24 0 -24 -34v-189q0 -34 24 -34q23 0 23 34v189q0 34 -23 34z" />
    <glyph glyph-name="ampersand" unicode="&#x26;" horiz-adv-x="512" 
d="M304 372l46 -107q19 37 25 125h117q-10 -163 -84 -249l62 -141h-162l-14 31q-46 -42 -98 -42q-84 0 -130 63.5t-46 149.5q0 123 106 209q-40 82 -40 142q0 29 9 57.5t27.5 55t53 42.5t80.5 16q74 0 119.5 -47.5t45.5 -110.5q0 -31 -10.5 -59.5t-34 -57t-34.5 -40
t-38 -37.5zM250 496q49 44 49 79q0 17 -10 31.5t-29 14.5q-17 0 -27 -11t-10 -26q0 -24 27 -88zM248 133l-63 144q-28 -33 -28 -70q0 -36 18 -58t48 -22q11 0 25 6z" />
    <glyph glyph-name="quotesingle" unicode="'" horiz-adv-x="225" 
d="M54 598v114h117v-113l-20 -138h-77z" />
    <glyph glyph-name="parenleft" unicode="(" horiz-adv-x="297" 
d="M127 726h148q-116 -168 -116 -394q0 -103 31 -210t88 -184h-149q-110 172 -110 390q0 211 108 398z" />
    <glyph glyph-name="parenright" unicode=")" horiz-adv-x="297" 
d="M22 726h148q109 -188 109 -398q0 -216 -111 -390h-148q56 78 87 185t31 209q0 226 -116 394z" />
    <glyph glyph-name="asterisk" unicode="*" horiz-adv-x="460" 
d="M189 712h81v-104l94 38l27 -80l-100 -34l70 -88l-65 -52l-67 93l-63 -93l-67 51l67 88l-98 29l27 82l94 -34v104z" />
    <glyph glyph-name="plus" unicode="+" horiz-adv-x="592" 
d="M230 354v186h132v-186h180v-136h-180v-186h-132v186h-180v136h180z" />
    <glyph glyph-name="comma" unicode="," horiz-adv-x="240" 
d="M59 -123l-11 18q48 34 48 100q-30 6 -45 29.5t-15 49.5q0 36 22 62t61 26q40 0 64.5 -25t24.5 -72q0 -72 -72 -137q-31 -29 -77 -51z" />
    <glyph glyph-name="hyphen" unicode="-" horiz-adv-x="361" 
d="M312 218h-262v136h262v-136z" />
    <glyph glyph-name="period" unicode="." horiz-adv-x="240" 
d="M120 162q36 0 60 -24t24 -62t-24 -62t-60 -24t-60 24t-24 62t24 62t60 24z" />
    <glyph glyph-name="slash" unicode="/" horiz-adv-x="261" 
d="M179 726h75l-171 -740h-76z" />
    <glyph glyph-name="zero" unicode="0" horiz-adv-x="440" 
d="M219 592q-39 0 -39 -48v-376q0 -48 39 -48q41 0 41 48v376q0 48 -41 48zM222 726q91 0 139.5 -45t48.5 -163v-338q0 -100 -47.5 -147t-142.5 -47q-190 0 -190 194v338q0 60 17 103t46 64.5t60.5 31t68.5 9.5z" />
    <glyph glyph-name="one" unicode="1" horiz-adv-x="440" 
d="M80 671l220 51v-722h-150v555l-70 -17v133z" />
    <glyph glyph-name="two" unicode="2" horiz-adv-x="440" 
d="M34 483v61q0 86 52 134t135 48q85 0 136 -50t51 -135q0 -72 -56 -195l-95 -207h142v-139h-365l172 369q31 65 41.5 99t10.5 69q0 58 -37 58t-37 -56v-56h-150z" />
    <glyph glyph-name="three" unicode="3" horiz-adv-x="440" 
d="M180 493h-150v65q0 49 18 84t48 52t60 24.5t62 7.5q84 0 138 -38t54 -121v-45q0 -72 -24.5 -106.5t-73.5 -44.5v-5q50 -6 74 -35t24 -94v-79q0 -88 -52 -130t-140 -42q-97 0 -142.5 39.5t-45.5 126.5v92h150v-70q0 -54 40 -54t40 54v70q0 38 -17.5 48.5t-56.5 10.5h-24
v124h31q32 0 49.5 11t17.5 47v63q0 19 -10.5 31.5t-29.5 12.5t-29.5 -13.5t-10.5 -30.5v-55z" />
    <glyph glyph-name="four" unicode="4" horiz-adv-x="440" 
d="M192 712h185v-435h47v-124h-47v-153h-150v153h-223v124zM225 557l-120 -280h122v280h-2z" />
    <glyph glyph-name="five" unicode="5" horiz-adv-x="440" 
d="M30 712h376v-124h-229v-115h4q34 49 100 49q131 0 131 -168v-166q0 -114 -51 -158t-140 -44q-87 0 -139 46t-52 135v112h150v-104q0 -55 41 -55t41 55v157q0 55 -40 55q-18 0 -30 -13t-12 -31h-150v369z" />
    <glyph glyph-name="six" unicode="6" horiz-adv-x="440" 
d="M408 327v-147q0 -52 -17.5 -90t-39.5 -56.5t-52.5 -29t-46 -12t-30.5 -1.5q-97 0 -142.5 50.5t-45.5 156.5v290q0 106 44 172t142 66q89 0 138.5 -48.5t49.5 -120.5v-19h-150v11q0 46 -36 46q-19 0 -28.5 -13.5t-9.5 -30.5v-104q37 35 85 35q65 0 102 -44t37 -111z
M258 164v142q0 46 -35 46q-39 0 -39 -46v-142q0 -18 9.5 -30.5t27.5 -12.5q17 0 27 12.5t10 30.5z" />
    <glyph glyph-name="seven" unicode="7" horiz-adv-x="440" 
d="M14 712h406v-101l-228 -611h-162l220 588h-236v124z" />
    <glyph glyph-name="eight" unicode="8" horiz-adv-x="440" 
d="M225 726q187 0 187 -168v-63q0 -43 -27 -77t-71 -43v-4q33 -8 51.5 -18t32.5 -41t14 -85v-61q0 -90 -53 -135t-144 -45q-187 0 -187 184v77q0 53 26 85t70 39v4q-43 9 -69.5 41t-26.5 86v54q0 49 18 84t48 52.5t62.5 25.5t68.5 8zM220 303q-42 0 -42 -51v-84
q0 -48 42 -48t42 48v83q0 26 -9 39t-33 13zM220 592q-42 0 -42 -47v-72q0 -25 10 -35.5t32 -10.5q23 0 32.5 10.5t9.5 39.5v67q0 26 -9 37t-33 11z" />
    <glyph glyph-name="nine" unicode="9" horiz-adv-x="440" 
d="M32 390v147q0 52 17.5 90t39.5 56.5t52.5 29t46.5 12t31 1.5q187 0 187 -207v-290q0 -238 -186 -238q-89 0 -138.5 49t-49.5 121v19h150q0 -59 37 -59q19 0 28 15.5t9 34.5v100q-29 -36 -84 -36q-66 0 -103 44.5t-37 110.5zM182 553v-141q0 -46 35 -46q39 0 39 57v130
q0 42 -36 42q-17 0 -27.5 -12t-10.5 -30z" />
    <glyph glyph-name="colon" unicode=":" horiz-adv-x="240" 
d="M120 162q36 0 60 -24t24 -62t-24 -62t-60 -24t-60 24t-24 62t24 62t60 24zM120 574q36 0 60 -24t24 -62t-24 -62t-60 -24t-60 24t-24 62t24 62t60 24z" />
    <glyph glyph-name="semicolon" unicode=";" horiz-adv-x="240" 
d="M120 574q36 0 60 -24t24 -62t-24 -62t-60 -24t-60 24t-24 62t24 62t60 24zM59 -123l-11 18q48 34 48 100q-29 5 -44.5 31t-15.5 46q0 37 22.5 63.5t60.5 26.5q40 0 64.5 -25t24.5 -72q0 -72 -72 -137q-29 -28 -77 -51z" />
    <glyph glyph-name="less" unicode="&#x3c;" horiz-adv-x="592" 
d="M514 156v-102l-436 190v84l436 190v-102l-302 -130z" />
    <glyph glyph-name="equal" unicode="=" horiz-adv-x="592" 
d="M542 338h-492v136h492v-136zM542 98h-492v136h492v-136z" />
    <glyph glyph-name="greater" unicode="&#x3e;" horiz-adv-x="592" 
d="M78 54v102l302 130l-302 130v102l436 -190v-84z" />
    <glyph glyph-name="question" unicode="?" horiz-adv-x="322" 
d="M139 200h-27q-20 62 -20 111q0 53 29.5 128t29.5 96q0 26 -18.5 43t-47.5 17q-30 0 -67 -23v127q37 24 109 24q79 0 126 -41.5t47 -111.5q0 -37 -15 -75t-37 -72l-45 -68t-41.5 -75t-22.5 -80zM126 154q33 0 56.5 -23.5t23.5 -58.5t-23.5 -58.5t-56.5 -23.5t-56.5 23.5
t-23.5 58.5t23.5 58.5t56.5 23.5z" />
    <glyph glyph-name="at" unicode="@" horiz-adv-x="786" 
d="M381 268q68 0 68 115q0 31 -10.5 45.5t-35.5 14.5q-37 0 -55.5 -34t-18.5 -78q0 -28 13.5 -45.5t38.5 -17.5zM463 485l8 48h110q-9 -54 -20.5 -114.5l-17.5 -93.5t-6 -37q0 -14 11 -14q34 0 64.5 34t30.5 93q0 112 -64 172.5t-173 60.5q-116 0 -186 -78.5t-70 -203.5
q0 -130 75 -205t197 -75q99 0 159 60h112q-99 -146 -279 -146q-159 0 -262.5 102t-103.5 264q0 160 102.5 267t258.5 107q88 0 163.5 -36t122.5 -106.5t47 -160.5q0 -68 -22 -118.5t-51.5 -76t-68.5 -41t-64 -19t-47 -3.5t-38 13.5t-18 36.5q-30 -50 -84 -50q-60 0 -95 43
t-35 116q0 100 42.5 159.5t125.5 59.5q55 0 76 -58z" />
    <glyph glyph-name="A" unicode="A" horiz-adv-x="461" 
d="M153 712h162l134 -712h-163l-8 94h-93l-8 -94h-165zM268 198l-34 395h-2l-37 -395h73z" />
    <glyph glyph-name="B" unicode="B" horiz-adv-x="470" 
d="M195 306v-174q58 0 72 12.5t14 74.5q0 58 -16 72.5t-70 14.5zM34 0v712h163q37 0 57 -0.5t50.5 -4t47 -10t36.5 -19t30 -30.5t17 -45.5t7 -63.5q0 -149 -115 -159v-7q37 0 61 -13t35.5 -38.5t15 -52t3.5 -66.5q0 -42 -5 -73t-13 -53t-25 -36.5t-33 -22.5t-46 -12
t-54.5 -5t-68.5 -1h-163zM195 580v-142q56 0 71 14t15 64q0 42 -14.5 53t-71.5 11z" />
    <glyph glyph-name="C" unicode="C" horiz-adv-x="460" 
d="M436 448h-161v68q0 66 -44 66q-42 0 -42 -66v-320q0 -66 42 -66q44 0 44 66v101h161v-84q0 -227 -205 -227q-91 0 -147 55t-56 183v264q0 128 56 183t147 55q97 0 151 -49.5t54 -170.5v-58z" />
    <glyph glyph-name="D" unicode="D" horiz-adv-x="470" 
d="M34 0v712h166q73 0 114.5 -8t73 -34t43 -73.5t11.5 -127.5v-254q0 -55 -9.5 -91.5t-35 -66t-74.5 -43.5t-123 -14h-166zM195 572v-432q58 0 72 12t14 57v277q0 63 -12 74.5t-74 11.5z" />
    <glyph glyph-name="E" unicode="E" horiz-adv-x="390" 
d="M34 712h334v-140h-173v-132h167v-140h-167v-160h173v-140h-334v712z" />
    <glyph glyph-name="F" unicode="F" horiz-adv-x="327" 
d="M34 712h275v-140h-114v-132h108v-140h-108v-300h-161v712z" />
    <glyph glyph-name="G" unicode="G" horiz-adv-x="464" 
d="M436 487h-161v29q0 66 -43 66t-43 -66v-320q0 -66 43 -66t43 66v93h-45v140h206v-206q0 -126 -51 -181.5t-153 -55.5q-90 0 -147 55.5t-57 182.5v264q0 127 57 182.5t147 55.5q100 0 152 -53.5t52 -170.5v-15z" />
    <glyph glyph-name="H" unicode="H" horiz-adv-x="476" 
d="M195 712v-256h86v256h161v-712h-161v308h-86v-308h-161v712h161z" />
    <glyph glyph-name="I" unicode="I" horiz-adv-x="229" 
d="M195 712v-712h-161v712h161z" />
    <glyph glyph-name="J" unicode="J" horiz-adv-x="233" 
d="M42 712h161v-696q0 -118 -41.5 -168t-153.5 -50h-44v154h21q57 0 57 68v692z" />
    <glyph glyph-name="K" unicode="K" horiz-adv-x="460" 
d="M195 712v-323h2l102 323h153l-107 -314l108 -398h-159l-97 361h-2v-361h-161v712h161z" />
    <glyph glyph-name="L" unicode="L" horiz-adv-x="320" 
d="M195 712v-572h115v-140h-276v712h161z" />
    <glyph glyph-name="M" unicode="M" horiz-adv-x="558" 
d="M84 712h114l82 -293h2l84 293h113l65 -712h-159l-7 411h-2l-83 -329h-27l-83 329h-2l-7 -411h-160z" />
    <glyph glyph-name="N" unicode="N" horiz-adv-x="478" 
d="M34 712h117l150 -394l2 2l-13 392h154v-712h-114l-154 406l-2 -1l15 -405h-155v712z" />
    <glyph glyph-name="O" unicode="O" horiz-adv-x="464" 
d="M232 582q-43 0 -43 -66v-320q0 -66 43 -66t43 66v320q0 66 -43 66zM232 726q90 0 147 -55.5t57 -182.5v-264q0 -127 -57 -182.5t-147 -55.5t-147 55.5t-57 182.5v264q0 127 57 182.5t147 55.5z" />
    <glyph glyph-name="P" unicode="P" horiz-adv-x="466" 
d="M195 572v-237h26q41 0 50.5 19.5t9.5 98.5q0 80 -9.5 99.5t-50.5 19.5h-26zM195 195v-195h-161v712h207q103 0 152 -32.5t49 -120.5v-210q0 -76 -50 -115t-127 -39h-70z" />
    <glyph glyph-name="Q" unicode="Q" horiz-adv-x="464" 
d="M436 488v-264q0 -164 -86 -210q29 -27 55 -27q15 0 33 13l14 -13l-84 -128q-67 12 -102.5 40.5t-63.5 88.5q-174 21 -174 236v264q0 127 57 182.5t147 55.5t147 -55.5t57 -182.5zM232 582q-43 0 -43 -66v-320q0 -66 43 -66t43 66v320q0 66 -43 66z" />
    <glyph glyph-name="R" unicode="R" horiz-adv-x="469" 
d="M195 0h-161v712h162q65 0 104.5 -5t74.5 -21.5t50.5 -50.5t15.5 -89q0 -139 -123 -160v-4q59 0 91 -30.5t32 -103.5v-248h-161v250q0 60 -58 60h-27v-310zM195 580v-138q55 0 70 13.5t15 63.5q0 41 -14.5 51t-70.5 10z" />
    <glyph glyph-name="S" unicode="S" horiz-adv-x="436" 
d="M412 517h-161v10q0 28 -7 41.5t-26 13.5q-20 0 -26.5 -13t-6.5 -42q0 -28 17 -50t42 -36t54.5 -34t54.5 -42t42 -61.5t17 -91.5q0 -117 -46.5 -171.5t-148.5 -54.5q-86 0 -139.5 44.5t-53.5 144.5v42h161v-33q0 -32 7.5 -43t25.5 -11q33 0 33 54q0 32 -12.5 56.5
t-32.5 40t-44 29.5t-48.5 31t-44.5 38t-32.5 56.5t-12.5 82.5q0 208 197 208q191 0 191 -187v-22z" />
    <glyph glyph-name="T" unicode="T" horiz-adv-x="402" 
d="M18 712h366v-140h-103v-572h-161v572h-102v140z" />
    <glyph glyph-name="U" unicode="U" horiz-adv-x="464" 
d="M28 712h161v-483q0 -55 7.5 -77t34.5 -22q28 0 36 22.5t8 76.5v483h161v-479q0 -36 -2.5 -63.5t-14.5 -64.5t-32.5 -61t-60.5 -41t-95 -17q-41 0 -74 10t-54 24t-36 38.5t-22.5 44.5t-11.5 50.5t-4.5 49t-0.5 46.5v463z" />
    <glyph glyph-name="V" unicode="V" horiz-adv-x="463" 
d="M10 712h172l48 -539h2l49 539h172l-142 -721h-160z" />
    <glyph glyph-name="W" unicode="W" horiz-adv-x="648" 
d="M10 712h166l33 -448h2l58 448h110l61 -445h2l32 445h164l-118 -721h-143l-51 431h-2l-49 -431h-145z" />
    <glyph glyph-name="X" unicode="X" 
d="M12 712h156l43 -250h1l40 250h156l-89 -344l89 -368h-159l-37 239h-1l-37 -239h-162l92 368z" />
    <glyph glyph-name="Y" unicode="Y" horiz-adv-x="421" 
d="M18 712h155l37 -316h1l38 316h154l-112 -400v-312h-163v312z" />
    <glyph glyph-name="Z" unicode="Z" horiz-adv-x="324" 
d="M22 712h286l-105 -572h105v-140h-292l104 572h-98v140z" />
    <glyph glyph-name="bracketleft" unicode="[" horiz-adv-x="297" 
d="M32 726h232v-112h-98v-564h99v-112h-233v788z" />
    <glyph glyph-name="backslash" unicode="\" horiz-adv-x="280" 
d="M-42 726h76l287 -740h-75z" />
    <glyph glyph-name="bracketright" unicode="]" horiz-adv-x="297" 
d="M33 726h232v-788h-233v112h99v564h-98v112z" />
    <glyph glyph-name="asciicircum" unicode="^" horiz-adv-x="592" 
d="M245 712h102l169 -365h-113l-107 248l-108 -248h-112z" />
    <glyph glyph-name="underscore" unicode="_" horiz-adv-x="495" 
d="M490 -98h-485v68h485v-68z" />
    <glyph glyph-name="grave" unicode="`" horiz-adv-x="314" 
d="M16 718h153l71 -104h-69l-158 93q-5 3 -5 6q0 5 8 5z" />
    <glyph glyph-name="a" unicode="a" horiz-adv-x="424" 
d="M28 164v226q0 80 30.5 131t85.5 51q41 0 66.5 -34.5t33.5 -73.5h2v100h146v-564h-146v106h-2q-12 -52 -40.5 -82.5t-67.5 -30.5q-53 0 -80.5 50.5t-27.5 120.5zM246 165v240q-4 6 -15 13t-22 7q-35 0 -35 -50v-178q0 -25 10 -40.5t27 -15.5q16 0 35 24z" />
    <glyph glyph-name="b" unicode="b" horiz-adv-x="424" 
d="M213 428q-25 0 -35 -29v-233q10 -29 35 -29q16 0 26.5 12t10.5 37v193q0 25 -10.5 37t-26.5 12zM178 712v-235h2q12 41 42.5 68t71.5 27q102 0 102 -147v-269q0 -163 -105 -163q-43 0 -73 23.5t-38 65.5h-2v-82h-146v712h146z" />
    <glyph glyph-name="c" unicode="c" 
d="M390 337h-142v71q0 50 -36 50t-36 -50v-251q0 -50 36 -50t36 50v69h142v-64q0 -86 -47.5 -127.5t-131.5 -41.5q-181 0 -181 179v204q0 88 48 142t133 54q179 0 179 -197v-38z" />
    <glyph glyph-name="d" unicode="d" horiz-adv-x="423" 
d="M210 428q-15 0 -25.5 -11.5t-10.5 -33.5v-201q0 -22 10.5 -33.5t25.5 -11.5q14 0 20.5 6.5t15.5 24.5v229q-9 18 -15.5 24.5t-20.5 6.5zM392 712v-712h-146v92h-2q-6 -38 -36 -68.5t-70 -30.5q-57 0 -83.5 50.5t-26.5 112.5v269q0 61 26.5 104t80.5 43q41 0 69 -28
t40 -77h2v245h146z" />
    <glyph glyph-name="e" unicode="e" 
d="M392 268h-218v-106q0 -55 36 -55t36 55v54h146v-44q0 -92 -48.5 -135.5t-133.5 -43.5q-81 0 -131.5 41.5t-50.5 130.5v226q0 80 47.5 130.5t134.5 50.5q81 0 131.5 -43.5t50.5 -137.5v-123zM174 356h72v58q0 44 -36 44t-36 -44v-58z" />
    <glyph glyph-name="f" unicode="f" horiz-adv-x="264" 
d="M234 719v-90q-27 0 -35.5 -11t-8.5 -47v-27h64v-104h-54v-440h-146v440h-44v104h44v65q0 114 92 114q55 0 88 -4z" />
    <glyph glyph-name="g" unicode="g" horiz-adv-x="421" 
d="M28 187v218q0 166 111 166q78 0 104 -101h1v94h145v-531q0 -44 -7.5 -76t-28.5 -62.5t-65 -46.5t-111 -16q-61 0 -134 17v119q54 -14 102 -14q63 0 81 18t18 64v42q-34 -56 -97 -56q-119 0 -119 165zM244 167v233q-13 28 -34 28q-37 0 -37 -57v-170q0 -52 34 -52
q12 0 37 18z" />
    <glyph glyph-name="h" unicode="h" 
d="M28 712h146v-241h2q12 46 43.5 77t72.5 31q56 0 78 -37.5t22 -118.5v-423h-146v367q0 19 -1 29.5t-8.5 21.5t-22.5 11q-26 0 -40 -34v-395h-146v712z" />
    <glyph glyph-name="i" unicode="i" horiz-adv-x="210" 
d="M178 564v-564h-146v564h146zM105 603q-29 0 -54 15t-25 46q0 30 25 44.5t54 14.5t54 -14.5t25 -46.5q0 -29 -26 -44t-53 -15z" />
    <glyph glyph-name="j" unicode="j" horiz-adv-x="233" 
d="M56 564h146v-547q0 -94 -43.5 -134.5t-149.5 -40.5h-39v118h19q67 0 67 65v539zM129 603q-30 0 -55 15t-25 46q0 30 26 44.5t54 14.5q29 0 54.5 -14.5t25.5 -46.5q0 -30 -26 -44.5t-54 -14.5z" />
    <glyph glyph-name="k" unicode="k" 
d="M178 712v-401h2l78 261h141l-89 -256l96 -316h-148l-78 299h-2v-299h-146v712h146z" />
    <glyph glyph-name="l" unicode="l" horiz-adv-x="210" 
d="M178 712v-712h-146v712h146z" />
    <glyph glyph-name="m" unicode="m" horiz-adv-x="621" 
d="M172 564v-88h2q22 96 112 96q82 0 97 -96h2q7 45 38 70.5t73 25.5q54 0 76 -34.5t22 -99.5v-438h-140v377q0 21 -9.5 36.5t-29.5 15.5q-3 0 -6 -0.5t-5 -2t-4 -2.5t-4 -3.5t-3 -4t-3 -5t-2.5 -4.5l-2.5 -5t-2 -5v-397h-140v377q0 21 -9.5 36.5t-29.5 15.5q-3 0 -6 -0.5
t-5 -2t-4 -2.5t-4 -3.5t-3 -4t-3 -5t-2.5 -4.5l-2.5 -5t-2 -5v-397h-140v564h140z" />
    <glyph glyph-name="n" unicode="n" horiz-adv-x="423" 
d="M178 564v-91h2q11 46 41.5 72.5t73.5 26.5q101 0 101 -144v-428h-146v377q0 52 -37 52q-23 0 -35 -32v-397h-146v564h146z" />
    <glyph glyph-name="o" unicode="o" 
d="M210 458q-36 0 -36 -50v-251q0 -50 36 -50t36 50v251q0 50 -36 50zM210 572q88 0 135 -52t47 -139v-206q0 -182 -182 -182t-182 182v206q0 87 47 139t135 52z" />
    <glyph glyph-name="p" unicode="p" horiz-adv-x="424" 
d="M216 429q-25 0 -38 -29v-234q13 -29 38 -29q34 0 34 49v194q0 49 -34 49zM32 564h146v-87h2q16 44 46.5 69.5t66.5 25.5q103 0 103 -159v-272q0 -61 -23.5 -104.5t-76.5 -43.5q-49 0 -80 26t-36 66h-2v-232h-146v711z" />
    <glyph glyph-name="q" unicode="q" horiz-adv-x="424" 
d="M208 425q-34 0 -34 -49v-188q0 -49 34 -49q21 0 38 23v240q-17 23 -38 23zM392 564v-711h-146v242h-2q-21 -50 -45 -76t-62 -26q-54 0 -81.5 47t-27.5 107v248q0 29 6 58.5t18.5 57t35 44.5t52.5 17q40 0 64.5 -26t39.5 -77h2v95h146z" />
    <glyph glyph-name="r" unicode="r" horiz-adv-x="280" 
d="M158 564v-126h2q10 76 27 110q13 24 38 24q27 0 49 -19v-160q-22 14 -48 14q-27 0 -39.5 -22t-12.5 -49v-336h-146v564h130z" />
    <glyph glyph-name="s" unicode="s" horiz-adv-x="374" 
d="M349 430v-45h-132v42q0 40 -31 40q-18 0 -23 -12t-5 -42q0 -29 6.5 -43t17 -19t39.5 -13q73 -22 102 -56.5t29 -106.5q0 -184 -166 -184q-77 0 -119.5 40.5t-42.5 107.5v48h132v-48q0 -21 6.5 -29.5t21.5 -8.5q18 0 25 11t7 37q0 40 -10.5 54t-58.5 29q-49 18 -72 32.5
t-38 45t-15 80.5q0 87 37.5 134.5t126.5 47.5q80 0 121.5 -40.5t41.5 -101.5z" />
    <glyph glyph-name="t" unicode="t" horiz-adv-x="266" 
d="M60 674h146v-130h50v-104h-50v-440h-146v440h-50v104h50v130z" />
    <glyph glyph-name="u" unicode="u" horiz-adv-x="422" 
d="M30 564h145v-408q0 -51 36 -51t36 51v408h145v-408q0 -81 -49.5 -123t-131.5 -42t-131.5 42t-49.5 123v408z" />
    <glyph glyph-name="v" unicode="v" horiz-adv-x="375" 
d="M10 564h143l32 -425h2l34 425h144l-115 -573h-127z" />
    <glyph glyph-name="w" unicode="w" horiz-adv-x="605" 
d="M10 564h149l48 -386h2l40 386h107l38 -386h2l51 386h148l-136 -573h-121l-35 311h-2l-38 -311h-121z" />
    <glyph glyph-name="x" unicode="x" 
d="M16 564h146l47 -195h2l48 195h145l-106 -277l106 -287h-148l-45 200h-2l-44 -200h-149l107 287z" />
    <glyph glyph-name="y" unicode="y" horiz-adv-x="374" 
d="M10 564h141l36 -422h2l34 422h141l-130 -593q-9 -41 -14 -59t-18 -40.5t-34 -31t-54 -8.5q-22 0 -78 14v128q48 -12 54 -12q32 0 39 22l5 17z" />
    <glyph glyph-name="z" unicode="z" horiz-adv-x="273" 
d="M18 564h243l-84 -448h82v-116h-247l85 450h-79v114z" />
    <glyph glyph-name="braceleft" unicode="{" horiz-adv-x="333" 
d="M301 726v-76h-11q-35 0 -45.5 -15.5t-10.5 -39.5v-177q0 -70 -122 -81v-2q35 -3 59.5 -10t43.5 -27t19 -52v-178q0 -54 56 -54h11v-76h-72q-40 0 -84.5 31t-44.5 85v181q0 19 -5 31t-17.5 17.5t-20.5 7t-25 3.5v83q68 0 68 59v174q0 54 44.5 85t84.5 31h72z" />
    <glyph glyph-name="bar" unicode="|" horiz-adv-x="225" 
d="M47 0v712h132v-712h-132z" />
    <glyph glyph-name="braceright" unicode="}" horiz-adv-x="333" 
d="M32 650v76h72q40 0 84.5 -31t44.5 -85v-174q0 -19 5 -31t17.5 -17.5t20.5 -7t25 -3.5v-83q-68 0 -68 -59v-181q0 -54 -44.5 -85t-84.5 -31h-72v76h11q56 0 56 54v178q0 43 33.5 65t88.5 24v2q-50 2 -86 23t-36 58v177q0 15 -2.5 25.5t-16 20t-37.5 9.5h-11z" />
    <glyph glyph-name="asciitilde" unicode="~" horiz-adv-x="592" 
d="M485 346l35 -96q-18 -27 -31.5 -42.5t-37.5 -29.5t-52 -14q-43 0 -101.5 34t-109.5 34q-50 0 -81 -72l-35 96q42 86 121 86q44 0 113 -34t94 -34q18 0 35 12t26.5 24.5t23.5 35.5z" />
    <glyph glyph-name="nbspace" unicode="&#xa0;" horiz-adv-x="225" 
 />
    <glyph glyph-name="section" unicode="&#xa7;" horiz-adv-x="423" 
d="M163 420q-24 -18 -24 -43q0 -17 22.5 -40.5t56 -49.5t39.5 -32q24 17 24 42q0 20 -23 43t-54.5 46t-40.5 34zM372 581h-115q0 23 -9 36q-8 15 -30 15q-18 0 -30 -10.5t-12 -28.5q0 -22 22 -45t54 -45.5t63.5 -48t53.5 -62.5t22 -80q0 -76 -64 -122l4 -4q4 -3 10.5 -10.5
t12.5 -18t10 -29.5t4 -42q0 -72 -45 -111t-116 -39q-76 0 -119 40.5t-43 120.5h111q0 -32 11.5 -49t41.5 -17q17 0 28.5 12.5t11.5 30.5q0 24 -22.5 48.5t-54.5 46.5t-63.5 47t-54 60t-22.5 76q0 48 14 78.5t49 60.5q-34 24 -34 88q0 69 46 108t114 39t109.5 -34.5
t41.5 -110.5z" />
    <glyph glyph-name="copyright" unicode="&#xa9;" horiz-adv-x="786" 
d="M393 -14q-155 0 -265 100.5t-110 269.5t110 269.5t265 100.5q99 0 183 -42.5t138 -128.5t54 -199t-54 -199t-138 -128.5t-183 -42.5zM649 356q0 122 -74.5 200t-181.5 78q-108 0 -182 -78t-74 -200t74 -200t182 -78q107 0 181.5 78.5t74.5 199.5zM539 420h-108
q0 35 -6 49t-23 14q-25 0 -30.5 -22.5t-5.5 -99.5q0 -41 0.5 -58t4 -35t11 -23.5t20.5 -5.5q17 0 23 14t6 49h112q0 -80 -31.5 -117.5t-107.5 -37.5q-51 0 -83.5 14t-47.5 45t-20 64.5t-5 88.5q0 58 4 91t19 64.5t47 45t84 13.5q77 0 107 -36.5t30 -116.5z" />
    <glyph glyph-name="guillemotleft" unicode="&#xab;" 
d="M99 564h117l-74 -283l74 -281h-117l-75 281zM279 564h117l-74 -283l74 -281h-117l-75 281z" />
    <glyph glyph-name="logicalnot" unicode="&#xac;" horiz-adv-x="592" 
d="M425 57v161h-375v136h492v-297h-117z" />
    <glyph glyph-name="registered" unicode="&#xae;" horiz-adv-x="786" 
d="M393 -14q-100 0 -184 42t-137.5 128t-53.5 199q0 169 110 270t265 101q153 0 264 -101t111 -270q0 -113 -54 -199t-138 -128t-183 -42zM649 355q0 121 -75 200t-181 79q-108 0 -182 -78.5t-74 -200.5t74 -199.5t182 -77.5q107 0 181.5 78t74.5 199zM375 313v-157h-110
v400h127q83 0 119 -24.5t36 -93.5q0 -93 -90 -99q80 -8 80 -76v-107h-110v105q0 52 -39 52h-13zM375 476v-81h25q20 0 28.5 7.5t8.5 32.5t-8.5 33t-27.5 8h-26z" />
    <glyph glyph-name="degree" unicode="&#xb0;" horiz-adv-x="398" 
d="M199 490q73 0 73 79t-73 79t-73 -79t73 -79zM199 426q-58 0 -98.5 41.5t-40.5 101.5t40.5 101.5t98.5 41.5t98.5 -41.5t40.5 -101.5t-40.5 -101.5t-98.5 -41.5z" />
    <glyph glyph-name="plusminus" unicode="&#xb1;" horiz-adv-x="592" 
d="M230 496v186h132v-186h180v-136h-180v-186h-132v186h-180v136h180zM50 10v136h492v-136h-492z" />
    <glyph glyph-name="mu" unicode="&#xb5;" horiz-adv-x="423" 
d="M26 572h154v-397q0 -52 31 -52q33 0 33 52v397h153v-572h-153v71h-2q-15 -54 -62 -78v-121h-154v700z" />
    <glyph glyph-name="mu" unicode="&#x3bc;" horiz-adv-x="423" 
d="M26 572h154v-397q0 -52 31 -52q33 0 33 52v397h153v-572h-153v71h-2q-15 -54 -62 -78v-121h-154v700z" />
    <glyph glyph-name="paragraph" unicode="&#xb6;" horiz-adv-x="622" 
d="M537 622v-791h-123v791h-72v-791h-122v532q-93 0 -133.5 43.5t-40.5 127.5q0 102 49 140t150 38h351v-90h-59z" />
    <glyph glyph-name="guillemotright" unicode="&#xbb;" 
d="M204 564h117l75 -283l-75 -281h-117l74 281zM24 564h117l75 -283l-75 -281h-117l74 281z" />
    <glyph glyph-name="florin" unicode="&#x192;" horiz-adv-x="264" 
d="M234 719v-90q-27 0 -35.5 -11t-8.5 -47v-27h64v-104h-54v-440h-146v440h-44v104h44v65q0 114 92 114q55 0 88 -4z" />
    <glyph glyph-name="dotaccent" unicode="&#x2d9;" horiz-adv-x="210" 
d="M105 603q-29 0 -54 15t-25 46q0 30 25 44.5t54 14.5t54 -14.5t25 -46.5q0 -29 -26 -44t-53 -15z" />
    <glyph glyph-name="afii10023" unicode="&#x401;" horiz-adv-x="390" 
d="M34 712h324v-131h-163v-135h157v-131h-157v-184h163v-131h-324v712zM115 888q27 0 45.5 -17t18.5 -46t-18.5 -46t-45.5 -17t-45.5 17t-18.5 46t18.5 46t45.5 17zM277 888q27 0 45.5 -17t18.5 -46t-18.5 -46t-45.5 -17t-45.5 17t-18.5 46t18.5 46t45.5 17z" />
    <glyph glyph-name="afii10051" unicode="&#x402;" horiz-adv-x="539" 
d="M18 712h372v-140h-119v-142q48 16 85 16q83 0 122 -51t39 -181q0 -114 -34 -164t-136 -50h-51v132q40 0 50 18t10 90q0 40 -10 56t-34 16q-27 0 -41 -9v-303h-161v572h-92v140z" />
    <glyph glyph-name="afii10052" unicode="&#x403;" horiz-adv-x="319" 
d="M34 712h295v-131h-134v-581h-161v712zM144 879h163q8 0 8 -5q0 -3 -5 -6l-158 -103h-79z" />
    <glyph glyph-name="afii10053" unicode="&#x404;" horiz-adv-x="460" 
d="M434 490h-161v36q0 56 -44 56q-42 0 -42 -56v-86h110v-140h-110v-114q0 -56 42 -56q44 0 44 56v58h161v-31q0 -109 -52 -168t-153 -59q-91 0 -147 55t-56 183v264q0 128 56 183t147 55q93 0 149 -54.5t56 -165.5v-16z" />
    <glyph glyph-name="afii10054" unicode="&#x405;" horiz-adv-x="432" 
d="M410 517h-161v10q0 28 -7 41.5t-26 13.5q-20 0 -26.5 -13t-6.5 -42q0 -28 17 -50t42 -36t54.5 -34t54.5 -42t42 -61.5t17 -91.5q0 -117 -46.5 -171.5t-148.5 -54.5q-86 0 -139.5 44.5t-53.5 144.5v42h161v-33q0 -32 7.5 -43t25.5 -11q33 0 33 54q0 32 -12.5 56.5
t-32.5 40t-44 29.5t-48.5 31t-44.5 38t-32.5 56.5t-12.5 82.5q0 208 197 208q191 0 191 -187v-22z" />
    <glyph glyph-name="afii10055" unicode="&#x406;" horiz-adv-x="213" 
d="M187 712v-712h-161v712h161z" />
    <glyph glyph-name="afii10056" unicode="&#x407;" horiz-adv-x="213" 
d="M187 712v-712h-161v712h161zM26 888q27 0 45.5 -17t18.5 -46t-18.5 -46t-45.5 -17t-45.5 17t-18.5 46t18.5 46t45.5 17zM188 888q27 0 45.5 -17t18.5 -46t-18.5 -46t-45.5 -17t-45.5 17t-18.5 46t18.5 46t45.5 17z" />
    <glyph glyph-name="afii10058" unicode="&#x409;" horiz-adv-x="731" 
d="M81 712h379v-194h34q44 0 70 -2.5t53.5 -11.5t41.5 -26t26.5 -46.5t17 -72.5t4.5 -105q0 -71 -7.5 -116.5t-21 -73.5t-41.5 -42t-58.5 -18t-82.5 -4h-197v572h-72v-309q0 -129 -40 -196t-139 -67h-40v140h10q38 0 50.5 37t12.5 114v421zM460 386v-254h26q41 0 50.5 21
t9.5 101q0 82 -10 107t-50 25h-26z" />
    <glyph glyph-name="afii10059" unicode="&#x40a;" horiz-adv-x="703" 
d="M187 712v-226h86v226h161v-226h34q44 0 70 -2t53.5 -10t41.5 -23.5t26.5 -42.5t17 -67t4.5 -97q0 -56 -4.5 -95.5t-16 -67t-26 -43.5t-41 -24.5t-53.5 -11t-70 -2.5h-197v348h-86v-348h-161v712h161zM434 348v-216h26q41 0 50.5 20t9.5 92q0 66 -10 85t-50 19h-26z" />
    <glyph glyph-name="afii10060" unicode="&#x40b;" horiz-adv-x="540" 
d="M518 0h-161v196q0 39 -10.5 55.5t-34.5 16.5q-27 0 -41 -9v-259h-161v572h-92v140h366v-140h-113v-175q45 15 86 15q77 0 119 -38t42 -129v-245z" />
    <glyph glyph-name="afii10061" unicode="&#x40c;" horiz-adv-x="460" 
d="M195 712v-333h5l91 333h173l-145 -332l174 -380h-189l-104 351h-5v-351h-161v712h161zM173 879h163q8 0 8 -5q0 -3 -5 -6l-158 -103h-79z" />
    <glyph glyph-name="afii10062" unicode="&#x40e;" horiz-adv-x="461" 
d="M163 164l-161 548h179l57 -360h4l48 360h171l-153 -584q-22 -82 -46 -107t-83 -25q-42 0 -91 4v116h25q14 0 20 1t13.5 5t11 14t5.5 28zM55 898h130q0 -55 44 -55q46 0 46 55h130q0 -68 -47 -105.5t-129 -37.5q-81 0 -127.5 37.5t-46.5 105.5z" />
    <glyph glyph-name="afii10145" unicode="&#x40f;" horiz-adv-x="460" 
d="M187 712v-572h86v572h161v-712h-128v-137h-152v137h-128v712h161z" />
    <glyph glyph-name="afii10017" unicode="&#x410;" horiz-adv-x="461" 
d="M150 712h165l134 -712h-167l-8 94h-93l-8 -94h-161zM264 198l-32 395h-6l-35 -395h73z" />
    <glyph glyph-name="afii10018" unicode="&#x411;" horiz-adv-x="457" 
d="M195 315v-184h29q34 0 43 20t9 73t-9 72t-42 19h-30zM34 712h350v-132h-189v-133h36q79 0 120.5 -17t62.5 -65t21 -141q0 -68 -12.5 -112.5t-39.5 -68.5t-62.5 -33.5t-89.5 -9.5h-197v712z" />
    <glyph glyph-name="afii10019" unicode="&#x412;" horiz-adv-x="470" 
d="M195 306v-175h19q43 0 55 15t12 73q0 54 -13.5 70.5t-52.5 16.5h-20zM34 0v712h170q50 0 75.5 -1.5t60.5 -10.5t52 -26.5t29.5 -51t12.5 -83.5q0 -33 -4 -57.5t-14.5 -48t-33 -37t-55.5 -16.5v-7q37 0 61 -13t35.5 -38.5t15 -52t3.5 -66.5q0 -42 -5 -73t-13 -53
t-25 -36.5t-33 -22.5t-46 -12t-54.5 -5t-68.5 -1h-163zM195 580v-142h20q40 0 51.5 15.5t11.5 62.5q0 41 -12 52.5t-57 11.5h-14z" />
    <glyph glyph-name="afii10020" unicode="&#x413;" horiz-adv-x="337" 
d="M34 712h295v-131h-134v-581h-161v712z" />
    <glyph glyph-name="afii10021" unicode="&#x414;" horiz-adv-x="510" 
d="M115 712h342v-581h43v-238h-147v107h-198v-107h-147v238h51q53 256 56 581zM296 131v450h-48q0 -213 -48 -450h96z" />
    <glyph glyph-name="afii10022" unicode="&#x415;" horiz-adv-x="378" 
d="M34 712h324v-131h-163v-135h157v-131h-157v-184h163v-131h-324v712z" />
    <glyph glyph-name="afii10024" unicode="&#x416;" horiz-adv-x="707" 
d="M273 0v351h-4l-95 -351h-189l174 380l-155 332h173l92 -333h4v333h161v-333h4l92 333h173l-145 -332l164 -380h-189l-95 351h-4v-351h-161z" />
    <glyph glyph-name="afii10025" unicode="&#x417;" horiz-adv-x="453" 
d="M20 546q0 86 58 133.5t138 47.5q82 0 141.5 -49.5t59.5 -138.5q0 -65 -21.5 -105t-85.5 -54v-7q66 -11 91 -53t25 -117q0 -217 -206 -217q-200 0 -200 188v70h156v-66q0 -25 10.5 -43t33.5 -18q26 0 35 21.5t9 80.5q0 54 -14 70.5t-56 16.5h-38v132h50q31 0 44 17t13 61
q0 43 -8 60.5t-36 17.5q-46 0 -46 -52v-42h-153v46z" />
    <glyph glyph-name="afii10026" unicode="&#x418;" horiz-adv-x="478" 
d="M327 712h117v-712h-155l17 406h-4l-154 -406h-114v712h154l-15 -394h4z" />
    <glyph glyph-name="afii10027" unicode="&#x419;" horiz-adv-x="478" 
d="M101 876h110q-3 -14 -3 -25q0 -36 38 -36q20 0 28.5 8.5t8.5 27.5q0 7 -2 25h110q1 -8 1 -22q0 -114 -147 -114q-146 0 -146 110q0 8 2 26zM327 712h117v-712h-155l17 406h-4l-154 -406h-114v712h154l-15 -394h4z" />
    <glyph glyph-name="afii10028" unicode="&#x41a;" horiz-adv-x="478" 
d="M195 712v-333h5l91 333h173l-145 -332l174 -380h-189l-104 351h-5v-351h-161v712h161z" />
    <glyph glyph-name="afii10029" unicode="&#x41b;" horiz-adv-x="492" 
d="M110 712h348v-712h-161v581h-45q-7 -335 -19 -422q-17 -111 -65 -141q-32 -20 -94 -20q-30 0 -66 3v115h25q34 0 48 39q21 61 26 353q2 77 3 204z" />
    <glyph glyph-name="afii10030" unicode="&#x41c;" horiz-adv-x="558" 
d="M84 712h114l80 -317h6l82 317h113l65 -712h-159v435h-6l-86 -353h-27l-86 353h-6v-435h-160z" />
    <glyph glyph-name="afii10031" unicode="&#x41d;" horiz-adv-x="476" 
d="M195 712v-266h86v266h161v-712h-161v315h-86v-315h-161v712h161z" />
    <glyph glyph-name="afii10032" unicode="&#x41e;" horiz-adv-x="464" 
d="M232 594q-43 0 -43 -70v-336q0 -71 43 -71t43 71v336q0 70 -43 70zM232 726q90 0 147 -55.5t57 -182.5v-264q0 -127 -57 -182.5t-147 -55.5t-147 55.5t-57 182.5v264q0 127 57 182.5t147 55.5z" />
    <glyph glyph-name="afii10033" unicode="&#x41f;" horiz-adv-x="470" 
d="M34 712h402v-712h-161v581h-80v-581h-161v712z" />
    <glyph glyph-name="afii10034" unicode="&#x420;" horiz-adv-x="455" 
d="M195 580v-184h29q34 0 43 20t9 73t-9 72t-42 19h-30zM195 265v-265h-161v712h197q79 0 120.5 -17t62.5 -65t21 -141q0 -68 -12.5 -112.5t-39.5 -68.5t-62.5 -33.5t-89.5 -9.5h-36z" />
    <glyph glyph-name="afii10035" unicode="&#x421;" horiz-adv-x="451" 
d="M431 488h-156v35q0 71 -44 71q-42 0 -42 -71v-334q0 -72 42 -72q44 0 44 72v68h156v-50q0 -108 -52.5 -164.5t-147.5 -56.5q-96 0 -149.5 56.5t-53.5 164.5v315q0 96 60.5 150t143.5 54q82 0 140.5 -53.5t58.5 -149.5v-35z" />
    <glyph glyph-name="afii10036" unicode="&#x422;" horiz-adv-x="402" 
d="M18 712h366v-131h-103v-581h-161v581h-102v131z" />
    <glyph glyph-name="afii10037" unicode="&#x423;" horiz-adv-x="461" 
d="M163 164l-161 548h179l57 -360h4l48 360h171l-153 -584q-22 -82 -46 -107t-83 -25q-42 0 -91 4v116h25q14 0 20 1t13.5 5t11 14t5.5 28z" />
    <glyph glyph-name="afii10038" unicode="&#x424;" horiz-adv-x="656" 
d="M251 255v257h-23q-36 0 -46.5 -25t-10.5 -104t10.5 -103.5t46.5 -24.5h23zM409 0h-162v129h-18q-111 0 -162.5 55t-51.5 199q0 78 15 129.5t45 78.5t66 37t88 10h19v94h160v-94h22q56 0 92 -10t64.5 -37t41.5 -78t13 -130q0 -144 -51 -199t-160 -55h-21v-129zM405 512
v-257h23q36 0 46.5 24.5t10.5 103.5t-10.5 104t-46.5 25h-23z" />
    <glyph glyph-name="afii10039" unicode="&#x425;" horiz-adv-x="446" 
d="M14 712h164l43 -290h7l40 290h164l-100 -344l102 -368h-167l-39 279h-7l-39 -279h-170l105 368z" />
    <glyph glyph-name="afii10040" unicode="&#x426;" horiz-adv-x="490" 
d="M195 712v-581h80v581h161v-581h44v-238h-147v107h-299v712h161z" />
    <glyph glyph-name="afii10041" unicode="&#x427;" horiz-adv-x="462" 
d="M25 712h161v-234q0 -41 8.5 -56.5t31.5 -15.5q27 0 41 9v297h161v-712h-161v285q-45 -15 -86 -15q-76 0 -116 37.5t-40 129.5v275z" />
    <glyph glyph-name="afii10042" unicode="&#x428;" horiz-adv-x="722" 
d="M195 712v-581h86v581h161v-581h85v581h161v-712h-654v712h161z" />
    <glyph glyph-name="afii10043" unicode="&#x429;" horiz-adv-x="742" 
d="M195 712v-581h86v581h161v-581h86v581h161v-581h43v-238h-147v107h-551v712h161z" />
    <glyph glyph-name="afii10044" unicode="&#x42a;" horiz-adv-x="508" 
d="M248 315v-184h29q34 0 43 20t9 73t-9 72t-42 19h-30zM87 0v580h-83v132h244v-265h36q79 0 120.5 -17t62.5 -65t21 -141q0 -68 -12.5 -112.5t-39.5 -68.5t-62.5 -33.5t-89.5 -9.5h-197z" />
    <glyph glyph-name="afii10045" unicode="&#x42b;" horiz-adv-x="682" 
d="M648 0h-161v712h161v-712zM195 315v-184h29q34 0 43 20t9 73t-9 72t-42 19h-30zM34 0v712h161v-265h36q79 0 120.5 -17t62.5 -65t21 -141q0 -68 -12.5 -112.5t-39.5 -68.5t-62.5 -33.5t-89.5 -9.5h-197z" />
    <glyph glyph-name="afii10046" unicode="&#x42c;" horiz-adv-x="455" 
d="M195 315v-184h29q34 0 43 20t9 73t-9 72t-42 19h-30zM34 0v712h161v-265h36q79 0 120.5 -17t62.5 -65t21 -141q0 -68 -12.5 -112.5t-39.5 -68.5t-62.5 -33.5t-89.5 -9.5h-197z" />
    <glyph glyph-name="afii10047" unicode="&#x42d;" horiz-adv-x="452" 
d="M176 502h-156v30q0 100 52.5 147t145.5 47q207 0 207 -214v-313q0 -109 -59 -161t-148 -52q-91 0 -144.5 55.5t-53.5 153.5v49h156v-58q0 -69 44 -69t44 69v122h-110v132h110v93q0 24 -10.5 42.5t-32.5 18.5q-24 0 -34.5 -18.5t-10.5 -43.5v-30z" />
    <glyph glyph-name="afii10048" unicode="&#x42e;" horiz-adv-x="692" 
d="M195 447h61v41q0 127 57 182.5t147 55.5t147 -55.5t57 -182.5v-264q0 -127 -57 -182.5t-147 -55.5t-147 55.5t-57 182.5v91h-61v-315h-161v712h161v-265zM460 594q-43 0 -43 -69v-338q0 -70 43 -70t43 70v338q0 69 -43 69z" />
    <glyph glyph-name="afii10049" unicode="&#x42f;" horiz-adv-x="468" 
d="M191 0h-186l118 282q-46 18 -71.5 62.5t-25.5 141.5q0 120 53 173t151 53h204v-712h-161v252h-24zM273 384v196h-34q-34 0 -43 -20.5t-9 -73.5q0 -56 9.5 -79t42.5 -23h34z" />
    <glyph glyph-name="afii10065" unicode="&#x430;" horiz-adv-x="422" 
d="M172 182v-24q0 -66 47 -66q12 0 29 5v176l-36 -16q-40 -18 -40 -75zM26 127v31q0 124 142 174l80 28v71q0 20 -11 31.5t-26 11.5t-26 -11.5t-11 -31.5v-27h-132v22q0 150 170 150q90 0 135 -35.5t45 -114.5v-426h-145v44h-8q-37 -51 -99 -51q-47 0 -80.5 35t-33.5 99z
" />
    <glyph glyph-name="afii10066" unicode="&#x431;" horiz-adv-x="424" 
d="M178 382v-227q0 -55 36 -55t36 55v227q0 49 -36 49t-36 -49zM396 381v-208q0 -90 -48.5 -136.5t-133.5 -46.5t-133.5 46.5t-48.5 136.5v343q0 101 47.5 148.5t125.5 47.5h161v-115h-152q-49 0 -69 -22t-20 -70v-55h7q17 41 51.5 62.5t74.5 21.5q56 0 97 -40.5t41 -112.5z
" />
    <glyph glyph-name="afii10067" unicode="&#x432;" horiz-adv-x="424" 
d="M178 252v-148h22q32 0 41 13t9 61t-8.5 61t-38.5 13h-25zM178 460v-113h25q29 0 38 10.5t9 47.5q0 34 -9.5 44.5t-37.5 10.5h-25zM32 564h195q88 0 123.5 -32.5t35.5 -103.5q0 -104 -84 -120v-8q46 -14 70 -45t24 -99q0 -156 -169 -156h-195v564z" />
    <glyph glyph-name="afii10068" unicode="&#x433;" horiz-adv-x="308" 
d="M32 564h266v-104h-120v-460h-146v564z" />
    <glyph glyph-name="afii10069" unicode="&#x434;" horiz-adv-x="445" 
d="M85 564h316v-460h38v-202h-136v98h-163v-98h-136v202h39q41 199 42 460zM176 104h79v356h-47q0 -187 -32 -356z" />
    <glyph glyph-name="afii10070" unicode="&#x435;" horiz-adv-x="414" 
d="M174 268v-113q0 -55 36 -55q37 0 37 54v55h142v-55q0 -83 -47.5 -123.5t-131.5 -40.5q-81 0 -131.5 41.5t-50.5 123.5v257q0 164 182 164q80 0 129.5 -40t49.5 -125v-143h-215zM174 356h73v56q0 54 -37 54q-36 0 -36 -55v-55z" />
    <glyph glyph-name="afii10072" unicode="&#x436;" horiz-adv-x="642" 
d="M246 564h150l-10 -257h5l75 257h167l-140 -252l159 -312h-185l-76 285h-5l10 -285h-150l10 285h-5l-76 -285h-185l153 312l-140 252h172l76 -257h5z" />
    <glyph glyph-name="afii10073" unicode="&#x437;" 
d="M167 397h-139v33q0 146 179 146q176 0 176 -141q0 -100 -85 -123v-8q47 -14 70.5 -43.5t23.5 -91.5q0 -179 -185 -179q-179 0 -179 159v57h141v-57q0 -55 39 -55t39 55v36q0 40 -8 55.5t-35 15.5h-52v95h58q22 0 29.5 10.5t7.5 31.5v35q0 22 -11.5 33t-28.5 11
q-40 0 -40 -44v-31z" />
    <glyph glyph-name="afii10074" unicode="&#x438;" horiz-adv-x="447" 
d="M32 564h144l-16 -322h6l125 322h124v-564h-144l15 322h-6l-125 -322h-123v564z" />
    <glyph glyph-name="afii10075" unicode="&#x439;" horiz-adv-x="447" 
d="M80 733h106q-2 -14 -2 -19q0 -38 39 -38t39 38q0 5 -2 19h106q1 -6 1 -18q0 -53 -37.5 -81.5t-107.5 -28.5q-69 0 -106.5 28t-37.5 79q0 7 2 21zM32 564h144l-16 -322h6l125 322h124v-564h-144l15 322h-6l-125 -322h-123v564z" />
    <glyph glyph-name="afii10076" unicode="&#x43a;" horiz-adv-x="434" 
d="M178 0h-146v564h146l-10 -257h5l85 257h167l-150 -252l169 -312h-185l-86 285h-5z" />
    <glyph glyph-name="afii10077" unicode="&#x43b;" horiz-adv-x="451" 
d="M87 564h332v-564h-146v460h-59q-6 -278 -18 -348q-15 -84 -60 -106q-25 -12 -72 -12q-25 0 -58 3v107h20q28 0 39 29q17 47 21 304q0 50 1 127z" />
    <glyph glyph-name="afii10078" unicode="&#x43c;" horiz-adv-x="538" 
d="M76 564h125l69 -283h7l70 283h120l57 -564h-149v368h-7l-78 -304h-41l-78 304h-7v-368h-150z" />
    <glyph glyph-name="afii10079" unicode="&#x43d;" horiz-adv-x="428" 
d="M178 564v-212h72v212h146v-564h-146v248h-72v-248h-146v564h146z" />
    <glyph glyph-name="afii10080" unicode="&#x43e;" 
d="M392 173q0 -90 -48.5 -136.5t-133.5 -46.5t-133.5 46.5t-48.5 136.5v221q0 89 48.5 135.5t133.5 46.5t133.5 -46.5t48.5 -135.5v-221zM246 155v256q0 55 -36 55t-36 -55v-256q0 -55 36 -55t36 55z" />
    <glyph glyph-name="afii10081" unicode="&#x43f;" horiz-adv-x="428" 
d="M32 564h364v-564h-146v460h-72v-460h-146v564z" />
    <glyph glyph-name="afii10082" unicode="&#x440;" horiz-adv-x="424" 
d="M177 469v-372q12 -4 27 -4q21 0 33.5 11.5t12.5 32.5v292q0 21 -12.5 32.5t-33.5 11.5q-15 0 -27 -4zM178 -147h-146v711h146v-32h8q44 44 109 44q44 0 72.5 -27.5t28.5 -84.5v-362q0 -57 -28.5 -85t-72.5 -28q-64 0 -109 45h-8v-181z" />
    <glyph glyph-name="afii10083" unicode="&#x441;" horiz-adv-x="416" 
d="M210 100q37 0 37 54v69h142v-69q0 -83 -47.5 -123.5t-131.5 -40.5q-81 0 -131.5 41.5t-50.5 123.5v257q0 164 182 164q80 0 129.5 -40t49.5 -125v-60h-142v61q0 54 -37 54q-36 0 -36 -55v-256q0 -55 36 -55z" />
    <glyph glyph-name="afii10084" unicode="&#x442;" horiz-adv-x="366" 
d="M10 564h346v-104h-100v-460h-146v460h-100v104z" />
    <glyph glyph-name="afii10085" unicode="&#x443;" horiz-adv-x="378" 
d="M378 564l-110 -580q-16 -84 -41 -113.5t-78 -29.5q-38 0 -101 9v101h27q31 0 39.5 11.5t13.5 50.5l-118 551h151l33 -392h8l31 392h145z" />
    <glyph glyph-name="afii10086" unicode="&#x444;" horiz-adv-x="613" 
d="M236 97v372q-12 4 -25 4q-41 0 -41 -54v-272q0 -54 41 -54q13 0 25 4zM234 -147v160h-8q-41 -15 -77 -15q-55 0 -89 34t-34 99v304q0 65 34 99t89 34q36 0 77 -15h8v158h145v-158h8q40 15 77 15q55 0 89 -34.5t34 -98.5v-304q0 -64 -34 -98.5t-89 -34.5q-36 0 -77 15h-8
v-160h-145zM377 469v-372q12 -4 25 -4q41 0 41 54v272q0 54 -41 54q-13 0 -25 -4z" />
    <glyph glyph-name="afii10087" unicode="&#x445;" horiz-adv-x="406" 
d="M-1 564h156l45 -215h8l44 215h155l-113 -277l116 -287h-161l-43 220h-8l-40 -220h-162l117 287z" />
    <glyph glyph-name="afii10088" unicode="&#x446;" horiz-adv-x="447" 
d="M186 564v-460h64v460h153v-460h38v-202h-136v98h-273v564h154z" />
    <glyph glyph-name="afii10089" unicode="&#x447;" horiz-adv-x="416" 
d="M25 564h146v-236q0 -42 28 -42q15 0 39 15v263h146v-564h-146v211q-40 -24 -88 -24q-53 0 -89 31.5t-36 96.5v249z" />
    <glyph glyph-name="afii10090" unicode="&#x448;" horiz-adv-x="632" 
d="M178 564v-460h65v460h146v-460h65v460h146v-564h-568v564h146z" />
    <glyph glyph-name="afii10091" unicode="&#x449;" horiz-adv-x="644" 
d="M178 564v-460h65v460h146v-460h65v460h146v-460h38v-202h-136v98h-470v564h146z" />
    <glyph glyph-name="afii10092" unicode="&#x44a;" horiz-adv-x="461" 
d="M6 564h216v-184h48q85 0 128 -39.5t43 -144.5q0 -114 -42.5 -155t-128.5 -41h-194v464h-70v100zM222 276v-172h30q25 0 34 19t9 67q0 49 -9 67.5t-34 18.5h-30z" />
    <glyph glyph-name="afii10093" unicode="&#x44b;" horiz-adv-x="615" 
d="M583 564v-564h-146v564h146zM178 276v-172h30q25 0 34 19t9 67q0 49 -9 67.5t-34 18.5h-30zM32 564h146v-184h48q85 0 128 -39.5t43 -144.5q0 -114 -42.5 -155t-128.5 -41h-194v564z" />
    <glyph glyph-name="afii10094" unicode="&#x44c;" horiz-adv-x="417" 
d="M178 276v-172h30q25 0 34 19t9 67q0 49 -9 67.5t-34 18.5h-30zM32 564h146v-184h48q85 0 128 -39.5t43 -144.5q0 -114 -42.5 -155t-128.5 -41h-194v564z" />
    <glyph glyph-name="afii10095" unicode="&#x44d;" 
d="M174 397h-146v35q0 71 52 107.5t126 36.5q77 0 131.5 -35.5t54.5 -108.5v-292q0 -74 -47 -112t-134 -38q-85 0 -134 36.5t-49 114.5v65h146v-70q0 -17 9 -29.5t27 -12.5q17 0 26.5 12.5t9.5 29.5v120h-95v94h95v79q0 17 -9.5 28.5t-26.5 11.5q-18 0 -27 -11.5t-9 -28.5
v-32z" />
    <glyph glyph-name="afii10096" unicode="&#x44e;" horiz-adv-x="625" 
d="M415 576q87 0 134.5 -49.5t47.5 -126.5v-228q0 -182 -182 -182t-182 182v76h-55v-248h-146v564h146v-212h55v48q0 77 47.5 126.5t134.5 49.5zM415 466q-36 0 -36 -50v-267q0 -50 36 -50t36 50v267q0 50 -36 50z" />
    <glyph glyph-name="afii10097" unicode="&#x44f;" horiz-adv-x="423" 
d="M252 315v145h-31q-22 0 -31.5 -15t-9.5 -57q0 -44 9 -58.5t31 -14.5h32zM398 564v-564h-146v212h-20l-47 -212h-173l110 237q-39 10 -63.5 51.5t-24.5 97.5q0 98 41.5 138t126.5 40h196z" />
    <glyph glyph-name="afii10071" unicode="&#x451;" 
d="M136 724q27 0 43.5 -16t16.5 -43t-16.5 -43t-43.5 -16t-43.5 16t-16.5 43t16.5 43t43.5 16zM284 724q27 0 43.5 -16t16.5 -43t-16.5 -43t-43.5 -16t-43.5 16t-16.5 43t16.5 43t43.5 16zM174 268v-113q0 -55 36 -55q37 0 37 54v55h142v-55q0 -83 -47.5 -123.5
t-131.5 -40.5q-81 0 -131.5 41.5t-50.5 123.5v257q0 164 182 164q80 0 129.5 -40t49.5 -125v-143h-215zM174 356h73v56q0 54 -37 54q-36 0 -36 -55v-55z" />
    <glyph glyph-name="afii10099" unicode="&#x452;" horiz-adv-x="423" 
d="M247 17v330q0 19 -1 29.5t-8.5 21.5t-22.5 11q-26 0 -40 -34v-375h-146v593h-29v80h29v39h146v-39h143v-80h-143v-142h2q11 45 42.5 71.5t73.5 26.5q57 0 78.5 -33.5t21.5 -112.5v-403q0 -90 -41 -129t-142 -39h-29v118h9q32 0 44.5 15.5t12.5 51.5z" />
    <glyph glyph-name="afii10100" unicode="&#x453;" horiz-adv-x="286" 
d="M126 718h153q8 0 8 -5q0 -3 -5 -6l-158 -93h-69zM32 564h266v-104h-120v-460h-146v564z" />
    <glyph glyph-name="afii10101" unicode="&#x454;" 
d="M392 386h-146v42q0 17 -9 28.5t-27 11.5q-17 0 -26.5 -11.5t-9.5 -28.5v-78h95v-94h-95v-119q0 -17 9.5 -28.5t26.5 -11.5q18 0 27 11.5t9 28.5v79h146v-74q0 -149 -183 -149q-181 0 -181 159v260q0 160 181 160q183 0 183 -161v-25z" />
    <glyph glyph-name="afii10102" unicode="&#x455;" horiz-adv-x="374" 
d="M349 430v-45h-132v42q0 40 -31 40q-18 0 -23 -12t-5 -42q0 -29 6.5 -43t17 -19t39.5 -13q73 -22 102 -56.5t29 -106.5q0 -184 -166 -184q-77 0 -119.5 40.5t-42.5 107.5v48h132v-48q0 -21 6.5 -29.5t21.5 -8.5q18 0 25 11t7 37q0 40 -10.5 54t-58.5 29q-49 18 -72 32.5
t-38 45t-15 80.5q0 87 37.5 134.5t126.5 47.5q80 0 121.5 -40.5t41.5 -101.5z" />
    <glyph glyph-name="afii10103" unicode="&#x456;" horiz-adv-x="208" 
d="M178 564v-564h-146v564h146zM104 603q-30 0 -55 15t-25 46q0 30 26 44.5t54 14.5q29 0 54.5 -14.5t25.5 -46.5q0 -30 -26 -44.5t-54 -14.5z" />
    <glyph glyph-name="afii10104" unicode="&#x457;" horiz-adv-x="210" 
d="M178 564v-564h-146v564h146zM33 724q27 0 43.5 -16t16.5 -43t-16.5 -43t-43.5 -16t-43.5 16t-16.5 43t16.5 43t43.5 16zM181 724q27 0 43.5 -16t16.5 -43t-16.5 -43t-43.5 -16t-43.5 16t-16.5 43t16.5 43t43.5 16z" />
    <glyph glyph-name="afii10105" unicode="&#x458;" horiz-adv-x="233" 
d="M56 564h146v-547q0 -100 -43 -142.5t-150 -42.5h-39v118h19q35 0 51 18t16 57v539zM129 603q-30 0 -55 15t-25 46q0 30 26 44.5t54 14.5q29 0 54.5 -14.5t25.5 -46.5q0 -30 -26 -44.5t-54 -14.5z" />
    <glyph glyph-name="afii10106" unicode="&#x459;" horiz-adv-x="652" 
d="M75 564h335v-184h65q72 0 112.5 -41t40.5 -149q0 -109 -40 -149.5t-113 -40.5h-211v460h-63v-236q0 -224 -146 -224h-43v104h9q54 0 54 112v348zM410 276v-172h23q29 0 39 18.5t10 67.5q0 50 -9.5 68t-36.5 18h-26z" />
    <glyph glyph-name="afii10107" unicode="&#x45a;" horiz-adv-x="639" 
d="M178 564v-202h72v202h146v-202h66q74 0 113.5 -37t39.5 -145q0 -57 -11.5 -94t-34 -55t-47 -24.5t-60.5 -6.5h-212v258h-72v-258h-146v564h146zM396 258v-154h23q30 0 40 14.5t10 61.5q0 48 -9.5 63t-37.5 15h-26z" />
    <glyph glyph-name="afii10108" unicode="&#x45b;" horiz-adv-x="423" 
d="M29 712h146v-39h143v-80h-143v-142h2q11 45 42.5 71.5t73.5 26.5q57 0 78.5 -33.5t21.5 -112.5v-403h-146v347q0 19 -1 29.5t-8.5 21.5t-22.5 11q-26 0 -40 -34v-375h-146v593h-29v80h29v39z" />
    <glyph glyph-name="afii10109" unicode="&#x45c;" horiz-adv-x="418" 
d="M165 718h153q8 0 8 -5q0 -3 -5 -6l-158 -93h-69zM178 0h-146v564h146l-10 -257h5l85 257h167l-150 -252l169 -312h-185l-86 285h-5z" />
    <glyph glyph-name="afii10110" unicode="&#x45e;" horiz-adv-x="374" 
d="M368 564l-110 -580q-16 -84 -41 -113.5t-78 -29.5q-38 0 -101 9v101h27q31 0 39.5 11.5t13.5 50.5l-118 551h151l33 -392h8l31 392h145zM28 768h112q0 -55 43 -55q45 0 45 55h112q0 -133 -157 -133q-155 0 -155 133z" />
    <glyph glyph-name="afii10193" unicode="&#x45f;" horiz-adv-x="435" 
d="M186 564v-460h64v460h153v-564h-117v-128h-136v128h-118v564h154z" />
    <glyph glyph-name="afii10050" unicode="&#x490;" horiz-adv-x="319" 
d="M26 712h161v135h114v-275h-114v-572h-161v712z" />
    <glyph glyph-name="afii10098" unicode="&#x491;" horiz-adv-x="288" 
d="M32 572h146v118h100v-222h-100v-468h-146v572z" />
    <glyph glyph-name="endash" unicode="&#x2013;" horiz-adv-x="592" 
d="M50 354h492v-136h-492v136z" />
    <glyph glyph-name="emdash" unicode="&#x2014;" horiz-adv-x="980" 
d="M975 218h-970v136h970v-136z" />
    <glyph glyph-name="quoteleft" unicode="&#x2018;" horiz-adv-x="240" 
d="M181 722l11 -18q-48 -34 -48 -100q30 -6 45 -29.5t15 -49.5q0 -36 -22 -62t-61 -26q-40 0 -64.5 25t-24.5 72q0 72 72 137q31 29 77 51z" />
    <glyph glyph-name="quoteright" unicode="&#x2019;" horiz-adv-x="240" 
d="M59 437l-11 18q48 34 48 100q-30 6 -45 29.5t-15 49.5q0 36 22 62t61 26q40 0 64.5 -25t24.5 -72q0 -72 -72 -137q-31 -29 -77 -51z" />
    <glyph glyph-name="quotesinglbase" unicode="&#x201a;" horiz-adv-x="240" 
d="M59 -123l-11 18q48 34 48 100q-30 6 -45 29.5t-15 49.5q0 36 22 62t61 26q40 0 64.5 -25t24.5 -72q0 -72 -72 -137q-31 -29 -77 -51z" />
    <glyph glyph-name="quotedblleft" unicode="&#x201c;" horiz-adv-x="490" 
d="M431 721l11 -18q-48 -34 -48 -100q30 -6 45 -29.5t15 -49.5q0 -36 -22 -62t-61 -26q-40 0 -64.5 25t-24.5 72q0 72 72 137q31 29 77 51zM185 721l11 -18q-48 -34 -48 -100q30 -6 45 -29.5t15 -49.5q0 -36 -22 -62t-61 -26q-40 0 -64.5 25t-24.5 72q0 72 72 137
q31 29 77 51z" />
    <glyph glyph-name="quotedblright" unicode="&#x201d;" horiz-adv-x="490" 
d="M59 436l-11 18q48 34 48 100q-30 6 -45 29.5t-15 49.5q0 36 22 62t61 26q40 0 64.5 -25t24.5 -72q0 -72 -72 -137q-31 -29 -77 -51zM305 436l-11 18q48 34 48 100q-30 6 -45 29.5t-15 49.5q0 36 22 62t61 26q40 0 64.5 -25t24.5 -72q0 -72 -72 -137q-31 -29 -77 -51z" />
    <glyph glyph-name="quotedblbase" unicode="&#x201e;" horiz-adv-x="490" 
d="M59 -123l-11 18q48 34 48 100q-30 6 -45 29.5t-15 49.5q0 36 22 62t61 26q40 0 64.5 -25t24.5 -72q0 -72 -72 -137q-31 -29 -77 -51zM305 -123l-11 18q48 34 48 100q-30 6 -45 29.5t-15 49.5q0 36 22 62t61 26q40 0 64.5 -25t24.5 -72q0 -72 -72 -137q-31 -29 -77 -51z
" />
    <glyph glyph-name="dagger" unicode="&#x2020;" horiz-adv-x="484" 
d="M221 493l2 1q-3 8 -21.5 48t-27.5 66t-9 44q0 32 19 51.5t58 19.5q74 0 74 -71q0 -39 -57 -158l1 -1q51 27 76.5 37t50.5 10q23 0 43 -16.5t20 -46.5t-16.5 -47t-46.5 -17q-46 0 -127 48q2 -15 12.5 -78l13.5 -80.5t10.5 -68t10 -74l6.5 -62t5.5 -67.5t1.5 -58
q0 -121 -78 -121q-80 0 -80 121q0 39 3 80.5t11 99.5l12.5 89t18 112.5l17.5 106.5q-81 -48 -127 -48q-29 0 -46 18.5t-17 45.5q0 33 19.5 48t43.5 15q29 0 66.5 -16t57.5 -31z" />
    <glyph glyph-name="daggerdbl" unicode="&#x2021;" horiz-adv-x="484" 
d="M263 87l-2 -1q3 -8 21.5 -48t27.5 -66t9 -44q0 -32 -19 -51.5t-58 -19.5q-74 0 -74 71q0 39 57 158l-1 1q-51 -27 -76.5 -37t-50.5 -10q-23 0 -43 16.5t-20 46.5t16.5 47t46.5 17q46 0 127 -48q-1 29 -21.5 84t-20.5 87q0 30 21 85t21 86q-81 -48 -127 -48
q-29 0 -46 18.5t-17 45.5q0 33 19.5 48t43.5 15q29 0 66.5 -16t57.5 -31l2 1q-3 8 -21.5 48t-27.5 66t-9 44q0 32 19 51.5t58 19.5q74 0 74 -71q0 -39 -57 -158l1 -1q51 27 76.5 37t50.5 10q23 0 43 -16.5t20 -46.5t-16.5 -47t-46.5 -17q-46 0 -127 48q1 -29 21.5 -84
t20.5 -87q0 -30 -21 -85t-21 -86q81 48 127 48q29 0 46 -18.5t17 -45.5q0 -33 -19.5 -48t-43.5 -15q-29 0 -65.5 15.5t-58.5 31.5z" />
    <glyph glyph-name="bullet" unicode="&#x2022;" horiz-adv-x="495" 
d="M248 534q72 0 122.5 -52t50.5 -126t-50.5 -126t-122.5 -52t-122 51.5t-50 126.5q0 74 49.5 126t122.5 52z" />
    <glyph glyph-name="ellipsis" unicode="&#x2026;" horiz-adv-x="840" 
d="M120 158q34 0 57 -22.5t23 -59.5t-23 -59.5t-57 -22.5t-57 22.5t-23 59.5t23 59.5t57 22.5zM420 158q34 0 57 -22.5t23 -59.5t-23 -59.5t-57 -22.5t-57 22.5t-23 59.5t23 59.5t57 22.5zM720 158q34 0 57 -22.5t23 -59.5t-23 -59.5t-57 -22.5t-57 22.5t-23 59.5t23 59.5
t57 22.5z" />
    <glyph glyph-name="perthousand" unicode="&#x2030;" horiz-adv-x="746" 
d="M78 -14l283 740h60l-282 -740h-61zM105 625v-167q0 -25 20 -25q22 0 22 25v167q0 25 -22 25q-20 0 -20 -25zM19 462v159q0 91 106 91q52 0 80 -23.5t28 -67.5v-159q0 -44 -28 -67.5t-80 -23.5q-106 0 -106 91zM354 254v-167q0 -25 21 -25t21 25v167q0 25 -21 25t-21 -25z
M268 91v159q0 44 27.5 67.5t79.5 23.5q51 0 79 -23.5t28 -67.5v-159q0 -44 -28 -67.5t-79 -23.5q-52 0 -79.5 23.5t-27.5 67.5zM600 254v-167q0 -25 20 -25q21 0 21 25v167q0 25 -21 25q-20 0 -20 -25zM513 91v159q0 44 27.5 67.5t79.5 23.5t80 -23.5t28 -67.5v-159
q0 -44 -28 -67.5t-80 -23.5t-79.5 23.5t-27.5 67.5z" />
    <glyph glyph-name="guilsinglleft" unicode="&#x2039;" horiz-adv-x="240" 
d="M99 564h117l-74 -283l74 -281h-117l-75 281z" />
    <glyph glyph-name="guilsinglright" unicode="&#x203a;" horiz-adv-x="240" 
d="M24 564h117l75 -283l-75 -281h-117l74 281z" />
    <glyph glyph-name="Euro" unicode="&#x20ac;" horiz-adv-x="440" 
d="M10 384v76h37v59q0 94 48.5 149t140.5 55q95 0 139.5 -55.5t44.5 -136.5v-23h-146v37q0 21 -10.5 34t-27.5 13q-39 0 -39 -50v-82h88v-76h-88v-52h75v-76h-75v-90q0 -45 39 -45q20 0 29 16t9 33v36h146v-14q0 -97 -47 -149t-137 -52q-19 0 -38.5 2.5t-48 14t-50 30.5
t-37 55.5t-15.5 84.5v78h-37v76h37v52h-37z" />
    <glyph glyph-name="afii61352" unicode="&#x2116;" horiz-adv-x="796" 
d="M648 476q-20 0 -20 -24v-177q0 -24 20 -24q21 0 21 24v177q0 24 -21 24zM648 539q121 0 121 -96v-164q0 -45 -34.5 -68t-86.5 -23q-51 0 -85.5 23t-34.5 68v164q0 96 120 96zM172 608v-608h-146v712h238l83 -506h2v506h146v-712h-219l-102 608h-2zM528 57v68h241v-68
h-241z" />
    <glyph glyph-name="trademark" unicode="&#x2122;" horiz-adv-x="800" 
d="M334 712v-90h-79v-322h-116v322h-79v90h274zM474 712l67 -219l67 219h91l41 -412h-116v240h-2l-68 -210h-25l-69 210h-1v-240h-116l41 412h90z" />
    <glyph glyph-name="Acute" unicode="&#xf6c9;" horiz-adv-x="314" 
d="M145 879h163q8 0 8 -5q0 -3 -5 -6l-158 -103h-79z" />
    <glyph glyph-name="Dieresis" unicode="&#xf6cb;" horiz-adv-x="354" 
d="M96 888q27 0 45.5 -17t18.5 -46t-18.5 -46t-45.5 -17t-45.5 17t-18.5 46t18.5 46t45.5 17zM258 888q27 0 45.5 -17t18.5 -46t-18.5 -46t-45.5 -17t-45.5 17t-18.5 46t18.5 46t45.5 17z" />
    <glyph glyph-name="cyrBreve" unicode="&#xf6d1;" horiz-adv-x="466" 
d="M58 898h130q0 -55 44 -55q46 0 46 55h130q0 -68 -47 -105.5t-129 -37.5t-128 37.5t-46 105.5z" />
    <glyph glyph-name="cyrbreve" unicode="&#xf6d4;" horiz-adv-x="435" 
d="M61 768h112q0 -55 43 -55q45 0 45 55h112q0 -133 -157 -133q-155 0 -155 133z" />
    </font>
</defs>
</svg>
